<svg xmlns="http://www.w3.org/2000/svg" xmlns:xlink="http://www.w3.org/1999/xlink" viewBox="0 0 1024 1024" width="40" height="40" style="border-color: rgba(187,187,187,1);border-width: 0;border-style: solid" filter="none">
    
    <g>
    <path d="M928 164.4c0-4.6-1.8-9-5.1-12.2l-48.9-49c-6.7-6.8-17.7-6.8-24.5 0L549.4 403.4c-32.8-25.5-62.3-38.2-89.2-38.2-24 0-45.6 10-64.1 29.8-14.6 15.6-25.1 34.6-33.4 49.9-4.8 8.7-9.7 17.8-12.8 20.8-8.6 8.6-41.1 19.9-69.9 29.8-48.1 16.7-102.7 35.6-131.8 64.7-38.5 38.5-55.7 91.3-48.4 148.9 6.5 52.1 33.1 104.8 72.9 144.6 46.6 46.6 110.2 74.5 170.1 74.5 48 0 90.6-17.3 123.4-50 28.4-28.4 45.3-79.6 60.2-124.8 10.2-31.2 20.9-63.5 31.5-74.1 4.1-4.1 14.1-9.8 23.9-15.3 30.7-17.3 72.6-41 78.8-86.9 4.1-29.8-8.3-62.9-37.5-100.4l300.1-300.1c3-3.3 4.8-7.7 4.8-12.2z" fill="#24222D" p-id="4582"></path><path d="M911 189.1l-12.2-12.2c-6.7-6.8-17.7-6.8-24.5 0-6.7 6.7-6.7 17.7 0 24.4-6.7-6.7-17.7-6.7-24.5 0-6.7 6.8-6.7 17.7 0 24.5l12.3 12.2c6.7 6.8 17.7 6.8 24.4 0 6.8-6.7 6.8-17.7 0-24.5l-10.1-10.2 10.2 10.2c6.7 6.8 17.7 6.8 24.4 0 6.8-6.7 6.8-17.7 0-24.4zM849.6 152.1c6.7-6.8 6.7-17.7 0-24.5l-12.2-12.2c-6.8-6.8-17.7-6.8-24.5 0-6.7 6.8-6.7 17.7 0 24.5l12.2 12.2c6.8 6.8 17.7 6.8 24.5 0zM788.4 139.9c-6.7 6.8-6.7 17.7 0 24.5l12.3 12.2c6.7 6.8 17.7 6.8 24.4 0 6.8-6.7 6.8-17.7 0-24.4L812.9 140c-6.8-6.9-17.7-6.9-24.5-0.1z" fill="#24222D" p-id="4583"></path><path d="M922.9 152.1L874 103.2c-6.7-6.7-17.7-6.7-24.5 0l-73.4 73.4 73.4 73.4 73.4-73.4c3.2-3.2 5.1-7.6 5.1-12.2s-1.8-9-5.1-12.3z" fill="#FF6666" p-id="4584"></path><path d="M490.4 609.2c-20.3 20.3-53.1 20.3-73.4 0-20.3-20.3-20.3-53.1 0-73.4 20.3-20.3 53.1-20.3 73.4 0 20.2 20.2 20.2 53.1 0 73.4z" fill="#FFFFFF" p-id="4585"></path><path d="M453.7 641.7c-18.5 0-35.9-7.2-48.9-20.3-27-27-27-70.8 0-97.8 13.1-13.1 30.4-20.3 48.9-20.3s35.8 7.2 48.9 20.3c13.1 13.1 20.3 30.4 20.3 48.9 0 18.4-7.2 35.8-20.3 48.9-13.1 13.1-30.5 20.3-48.9 20.3z m0-103.8c-9.3 0-17.9 3.6-24.5 10.1-13.5 13.5-13.5 35.4 0 48.9 6.5 6.5 15.2 10.1 24.5 10.1 9.2 0 17.9-3.6 24.4-10.1s10.1-15.2 10.1-24.4c0-9.3-3.6-17.9-10.1-24.5-6.5-6.5-15.2-10.1-24.4-10.1zM404.7 736.5c-4.4 0-8.8-1.7-12.2-5.1l-97.8-97.8c-6.7-6.7-6.7-17.7 0-24.4 6.7-6.8 17.7-6.8 24.5 0L417 707c6.7 6.7 6.7 17.7 0 24.4-3.4 3.4-7.8 5.1-12.3 5.1zM763.8 286.5c-6.7 6.8-17.7 6.8-24.5 0-6.7-6.7-6.7-17.7 0-24.4 6.7-6.8 17.7-6.8 24.5 0 6.8 6.7 6.8 17.7 0 24.4zM714.9 335.4c-6.7 6.8-17.7 6.8-24.4 0-6.8-6.7-6.8-17.7 0-24.4 6.7-6.8 17.7-6.8 24.4 0 6.8 6.7 6.8 17.7 0 24.4zM666 384.3c-6.7 6.8-17.7 6.8-24.5 0-6.7-6.8-6.7-17.7 0-24.4 6.8-6.8 17.7-6.8 24.5 0 6.7 6.7 6.7 17.7 0 24.4z" fill="#FF6666" p-id="4586"></path>
    </g>
  </svg>