<svg xmlns="http://www.w3.org/2000/svg" xmlns:xlink="http://www.w3.org/1999/xlink" viewBox="0 0 32 32" width="20" height="20" style="border-color: rgba(187,187,187,1);border-width: 0;border-style: solid" filter="none">
    
    <g>
    <path d="M14.048 24.576c-0.032-0.16-0.032-0.32-0.032-0.48v-16.096c0-0.576 0-0.576 0.576-0.576 1.088 0 1.088 0 1.088 1.088v15.488c0 0.192 0 0.384-0.032 0.576h-1.6zM32 16.832h-1.312c-0.256 0.032-0.352-0.096-0.352-0.352 0.064-1.6-0.256-1.248 1.248-1.312 0.128 0 0.288 0.032 0.416 0.032v1.632zM11.68 16c0-1.664 0.032-3.328 0-4.992 0-0.352 0.096-0.512 0.48-0.48 0.288 0.032 0.576 0 0.864 0 0.224 0 0.352 0.128 0.32 0.352v10.080c0 0.544 0 0.544-0.512 0.544-0.256 0-0.48-0.032-0.704 0-0.352 0.032-0.448-0.128-0.448-0.448 0.032-1.696 0-3.36 0-5.056zM18.016 16.032v4.992c0 0.352-0.096 0.512-0.448 0.48-0.134-0.015-0.29-0.024-0.448-0.024s-0.314 0.009-0.467 0.026l0.019-0.002c-0.224 0-0.352-0.128-0.32-0.352v-10.080c0-0.512 0-0.544 0.512-0.544 1.152 0 1.152 0 1.152 1.152v4.352zM8.64 16.064v3.424c0 0.352-0.096 0.48-0.416 0.448h-0.832c-0.32 0.032-0.416-0.128-0.416-0.416v-6.944c0-0.384 0.128-0.512 0.512-0.512 1.152 0.032 1.152 0 1.152 1.184v2.816zM20.32 16.064c0 0.896 0 1.792 0.032 2.688 0 0.32-0.096 0.448-0.416 0.416h-0.864c-0.32 0.032-0.416-0.128-0.416-0.416v-5.536c0-0.256 0.096-0.352 0.352-0.352h0.928c0.32-0.032 0.416 0.096 0.416 0.416-0.032 0.928-0.032 1.856-0.032 2.784zM25.696 16v-2.624c0-0.512 0-0.512 0.544-0.512h0.768c0.256-0.032 0.352 0.096 0.352 0.352v5.568c0 0.256-0.096 0.384-0.352 0.384h-0.928c-0.288 0.032-0.384-0.096-0.384-0.384v-2.784zM6.336 16c0 0.672-0.032 1.312 0 1.984 0 0.288-0.096 0.416-0.416 0.416-0.288-0.032-0.608 0-0.928 0-0.192 0-0.32-0.096-0.32-0.32v-4.128c0-0.224 0.096-0.32 0.32-0.32h0.992c0.256 0 0.352 0.128 0.352 0.384-0.032 0.672 0 1.312 0 1.984zM11.040 16.032c0 0.672-0.032 1.312 0 1.984 0 0.256-0.096 0.384-0.384 0.384-0.134-0.015-0.29-0.024-0.448-0.024s-0.314 0.009-0.467 0.026l0.019-0.002c-0.32 0-0.416-0.128-0.384-0.416v-3.936c-0.032-0.288 0.064-0.448 0.384-0.416 0.288 0 0.576 0.032 0.864 0 0.32-0.032 0.416 0.128 0.416 0.448-0.032 0.64 0 1.312 0 1.952zM22.656 16v2.016c0 0.288-0.096 0.384-0.384 0.384-0.32-0.032-0.64 0-0.96 0-0.224 0-0.32-0.096-0.32-0.32v-4.16c0-0.192 0.096-0.288 0.288-0.288h1.056c0.256 0 0.32 0.128 0.32 0.352v2.016zM28.032 16v-1.6c0-0.288 0.096-0.384 0.352-0.384h0.96c0.224 0 0.352 0.064 0.352 0.32v3.36c0 0.224-0.128 0.32-0.352 0.32-0.32 0-0.64-0.032-0.96 0-0.256 0-0.352-0.128-0.352-0.384v-1.632zM4 16.032v1.248c0 0.256-0.096 0.352-0.32 0.352-0.153-0.015-0.332-0.024-0.512-0.024s-0.359 0.009-0.534 0.026l0.022-0.002c-0.224 0-0.32-0.096-0.32-0.32v-2.592c0-0.224 0.096-0.32 0.288-0.32h1.056c0.224 0 0.32 0.128 0.32 0.352v1.28zM25.024 16c0 0.416 0 0.8 0.032 1.216 0 0.288-0.096 0.416-0.384 0.416-0.144-0.015-0.311-0.024-0.48-0.024s-0.336 0.009-0.501 0.026l0.021-0.002c-0.256 0-0.32-0.128-0.32-0.352v-2.528c0-0.256 0.096-0.352 0.352-0.352h0.96c0.224 0 0.352 0.128 0.352 0.352-0.032 0.416-0.032 0.832-0.032 1.248zM1.664 16.032c0 0.896 0.128 0.8-0.832 0.8-0.928 0-0.832 0.096-0.832-0.8 0-0.96-0.096-0.832 0.864-0.832 0.928-0.032 0.8-0.096 0.8 0.832z" fill="rgba(255,255,255,1)"></path>
    </g>
  </svg>