<svg xmlns="http://www.w3.org/2000/svg" xmlns:xlink="http://www.w3.org/1999/xlink" viewBox="0 0 32 32" width="20" height="20" style="border-color: rgba(187,187,187,1);border-width: 0;border-style: solid" filter="none">
    
    <g>
    <path d="M19.392 14.496c1.12 1.856 0.992 3.392-0.288 4.736-1.12 1.152-2.176 2.4-3.264 3.584-0.192 0.224-0.256 0.448-0.224 0.768 0.512 3.776-1.728 7.168-5.408 8.16-4.288 1.184-8.736-1.92-9.12-6.368-0.384-4.096 2.432-7.552 6.496-8.032 0.064-0.032 0.16-0.032 0.256-0.032 0.96 0.224 1.6-0.256 2.176-0.992 0.832-1.056 1.76-2.016 2.656-2.976 1.248-1.376 2.496-1.632 4.224-0.928 0.32 0.128 0.384 0.224 0.128 0.48-2.144 2.368-4.288 4.736-6.4 7.136-0.096 0.064-0.16 0.16-0.256 0.256-0.32 0.416-0.64 0.64-1.216 0.672-1.28 0.032-2.336 1.344-2.208 2.592 0.128 1.44 1.344 2.496 2.688 2.4 1.376-0.128 2.432-1.28 2.336-2.624-0.032-0.416 0.064-0.672 0.352-0.96l6.72-7.488c0.096-0.128 0.224-0.224 0.352-0.384zM7.328 23.392c0.032-1.216 1.024-2.176 2.208-2.112 0.32 0.032 0.48-0.032 0.704-0.256 3.36-3.776 6.752-7.552 10.144-11.328 1.28-1.408 2.56-2.816 3.808-4.224 0.128-0.16 0.288-0.288 0.192-0.544-0.224-0.576-0.064-1.12 0.32-1.568 0.256-0.288 0.128-0.416-0.16-0.448-0.352-0.032-0.544-0.192-0.512-0.544-0-0.007-0.001-0.014-0.001-0.022 0-0.239 0.182-0.435 0.415-0.458l0.002-0c0.352-0.032 0.544 0.128 0.608 0.48 0.032 0.128 0.096 0.288 0.256 0.256 0.186-0.078 0.32-0.244 0.352-0.445l0-0.003c0.032-0.16-0.128-0.192-0.288-0.192-0.352-0.032-0.512-0.224-0.512-0.576 0.017-0.24 0.208-0.431 0.446-0.448l0.002-0c0.32-0.032 0.512 0.096 0.576 0.448 0.032 0.16 0.096 0.32 0.288 0.256 0.128-0.064 0.288-0.256 0.352-0.416 0.032-0.16-0.16-0.192-0.32-0.192-0.288-0.064-0.512-0.224-0.512-0.544 0-0.288 0.192-0.48 0.48-0.512s0.512 0.128 0.576 0.448c0.064 0.352 0.224 0.352 0.544 0.224 0.832-0.384 1.568-0.096 2.208 0.48 0.608 0.544 0.96 1.28 0.672 2.112-0.128 0.384-0.032 0.512 0.32 0.544 0.288 0.032 0.48 0.192 0.48 0.512-0.032 0.256-0.16 0.448-0.416 0.48-0.32 0.064-0.544-0.096-0.608-0.384-0.064-0.16-0.064-0.384-0.288-0.32-0.16 0.064-0.32 0.224-0.352 0.416s0.16 0.192 0.32 0.224c0.288 0.064 0.512 0.192 0.48 0.544-0.032 0.288-0.192 0.448-0.448 0.48-0.32 0.032-0.512-0.128-0.576-0.416-0.032-0.16-0.096-0.352-0.256-0.32-0.196 0.074-0.341 0.24-0.383 0.444l-0.001 0.004c-0.032 0.16 0.192 0.192 0.352 0.224 0.288 0.032 0.48 0.192 0.48 0.512-0.023 0.252-0.205 0.456-0.444 0.511l-0.004 0.001c-0.32 0.032-0.512-0.128-0.576-0.416-0.096-0.384-0.224-0.448-0.48-0.16-0.384 0.416-0.896 0.544-1.44 0.48-0.256-0.032-0.416 0.032-0.608 0.224-4.64 5.184-9.312 10.4-13.984 15.552-0.224 0.256-0.224 0.512-0.16 0.8 0.128 1.216-0.8 2.336-2.048 2.368-1.216 0.064-2.24-0.96-2.208-2.176z" fill="rgba(255,255,255,1)"></path>
    </g>
  </svg>