<svg xmlns="http://www.w3.org/2000/svg" xmlns:xlink="http://www.w3.org/1999/xlink" viewBox="0 0 32 32" width="20" height="20" style="border-color: rgba(187,187,187,1);border-width: 0;border-style: solid" filter="none">
    
    <g>
    <path d="M29.376 8.736c-0.256 0.32-0.608 0.448-0.992 0.352-0.416-0.096-0.704-0.352-0.768-0.8-0.103-0.751-0.305-1.43-0.595-2.061l0.019 0.045c-1.28-2.88-4.384-4.64-7.52-4.256-0.352 0.064-0.672 0.064-0.96-0.192-0.32-0.256-0.448-0.608-0.32-0.992 0.096-0.416 0.352-0.672 0.8-0.736 0.384-0.064 0.827-0.101 1.279-0.101 0.373 0 0.74 0.025 1.099 0.073l-0.042-0.005c2.016 0.224 3.776 1.024 5.28 2.4 1.6 1.472 2.56 3.296 2.88 5.44 0.064 0.32 0 0.576-0.16 0.832zM24.192 4.224c1.344 1.056 2.176 2.432 2.464 4.128 0.096 0.576-0.256 1.088-0.832 1.184-0.544 0.064-1.024-0.288-1.12-0.896-0.416-2.432-2.464-3.936-4.928-3.68-0.512 0.032-0.864-0.128-1.056-0.512-0.192-0.352-0.128-0.8 0.128-1.12 0.16-0.192 0.384-0.288 0.64-0.32 1.728-0.224 3.296 0.192 4.704 1.216zM23.104 11.168c0.352 2.304 0 4.384-1.952 5.952-1.376 1.12-1.888 1.12-3.296 0.064-1.696-1.248-3.36-2.56-5.088-3.776-0.704-0.48-0.8-1.024-0.64-1.792 0.544-2.272 1.952-3.744 4.192-4.288 2.112-0.512 4 0.064 5.472 1.728 0.384 0.416 0.704 0.864 1.024 1.312 0.096 0.256 0.192 0.544 0.288 0.8zM11.040 14.656c4.068 2.978 6.234 4.616 8.391 6.266l-1.735-1.274c-4.032 4.128-7.968 8.192-12 12.352-1.088-0.768-2.144-1.504-3.264-2.336 2.848-4.992 5.696-9.92 8.608-15.008z" fill="rgba(255,255,255,1)"></path>
    </g>
  </svg>