<svg xmlns="http://www.w3.org/2000/svg" xmlns:xlink="http://www.w3.org/1999/xlink" viewBox="0 0 1024 1024" width="40" height="40" style="border-color: rgba(187,187,187,1);border-width: 0;border-style: solid" filter="none">
    
    <g>
    <path d="M128 554h768l-3 328-761 10z" fill="#292361" p-id="7498"></path><path d="M161 587h707l-8.738 291.45L157.651 887z" fill="#FFEBEA" p-id="7499"></path><path d="M219 666h44v130l-44 6V666z" fill="#131F4A" p-id="7500"></path><path d="M370 666h-44v135l44 5V666z" fill="#131F4A" p-id="7501"></path><path d="M440 666h44v130l-44 6V666zM593 666h-44v137l44 3V666z" fill="#131F4A" p-id="7502"></path><path d="M657 666h44v130l-44 5V666zM807 666h-44v133l44 7V666z" fill="#131F4A" p-id="7503"></path><path d="M895 680l-766-11-1-387C128 56.209 350 64 350 64c218 0 218 233 218 233 0 48.613 31.523 144.894 173 122 142.227-23.016 155 29.27 155 86z" fill="#292361" p-id="7504"></path><path d="M128 527l768 10v23l-768 10v-43z" fill="#C6B7D4" p-id="7505"></path>
    </g>
  </svg>