<svg xmlns="http://www.w3.org/2000/svg" viewBox="0 0 245 346" width="53" height="75" style="" filter="none">
    
    <g>
    
<path d="M136 1.20001C123.467 3.73335 114.667 13.0667 114.667 23.6C114.667 25.6 115.867 29.7334 117.467 32.8C120.4 39.0667 128.4 44 135.333 44C142.267 44 150.267 39.0667 153.2 32.8C156.533 26.1334 156.667 21.6 154 15.0667L152 10.2667L154.667 12.6667C156.267 14 159.6 19.4667 162.133 24.6667C172.133 44.8 168.667 71.3333 153.733 90C147.867 97.0667 134.933 109 132 109C131.333 109 132 94.4 132 79.3334V52H128.667H125.333L125.067 81.6V112L116.5 116.5C111.567 117.967 103.5 121.333 91.5 122C68.5667 123.333 52.2667 126.4 38 133.867C18.6667 143.867 6.66667 154 2 171.2C-2.13333 186.533 1.46667 197.867 14.2667 210.133C32.2667 227.467 69.8667 240.133 109.467 242.267L125.333 243.067V281.067C125.333 317.467 125.2 319.2 122.4 324.133C116.667 334.533 104.267 340 87.4667 339.867C73.3333 339.733 69.6 338.4 77.0667 336.267C100.667 329.2 102.4 296.8 79.7333 287.333C62.4 280.133 44.1333 293.2 44 312.533C44 330.133 60.1333 343.333 84 344.933C103.333 346.267 122.267 338 128.933 325.467C131.867 319.733 132 318.8 132 281.2V242.933L142.4 242C200.667 236.8 244.1 220.9 244.5 192.5C244.767 173.967 202.133 150.533 150.4 152.267L132 152.933L132.133 140.8V128.667L141.467 122C146.667 118.267 155.5 111.8 159.5 107C168.433 96.6 176.3 80.3667 179.5 66.5C180.933 57 182 50.5 181.067 41.2C176.933 21.4667 168.667 8.40004 157.067 3.60004C151.067 1.0667 141.733 1.22786e-05 136 1.20001ZM125.333 142.933V154L111.867 156.933C100.267 159.467 81.3333 166.667 81.3333 168.4C81.3333 168.8 84 168.267 87.3333 167.333C92.5333 165.733 108.5 162.5 120.533 160.933L125 160.5L125.333 194.8V228.4L112.4 227.467C72.5333 224.533 43.1 211.033 33.5 192.5C23.7667 173.567 33.0333 152.267 62.5 146C67.3 145.067 85.4667 140 89.7333 140C99 138.5 113.733 136.8 120.533 133.867C122.8 132.933 124.8 132.133 125.067 132C125.2 132 125.333 136.933 125.333 142.933ZM188.5 164.5C207.533 169.467 216 183.7 216 192.5C214.833 212.067 193.1 220.933 157.5 226C151.633 226.933 140.767 227.733 138.5 228L132 228.4V194.4V160L157 159.5C166 160 183.3 163.433 188.5 164.5Z" fill="rgba(255,255,255,1)" stroke="none"></path>

    </g>
  </svg>