<svg xmlns="http://www.w3.org/2000/svg" xmlns:xlink="http://www.w3.org/1999/xlink" viewBox="0 0 32 32" width="24" height="24" style="border-color: rgba(187,187,187,1);border-width: 0;border-style: solid" filter="none">
    
    <g>
    <path d="M18.464 24.832h-4.96c-0.384 0-0.704 0.32-0.704 0.704s0.32 0.704 0.704 0.704h4.96c0.384 0 0.704-0.32 0.704-0.704s-0.288-0.704-0.704-0.704zM14.72 28.896c0.096 0.608 0.608 1.12 1.28 1.12s1.184-0.48 1.28-1.12c0.858-0.058 1.532-0.765 1.536-1.632v-0h-5.632c0 0.896 0.672 1.568 1.536 1.632zM16 6.016c0.512-0.001 0.927-0.416 0.928-0.928v-2.144c0-0.512-0.416-0.96-0.928-0.96s-0.928 0.416-0.928 0.96v2.144c0 0.512 0.416 0.928 0.928 0.928zM9.888 7.36c0.192 0.256 0.48 0.384 0.768 0.384 0.192 0 0.384-0.032 0.544-0.16 0.237-0.178 0.388-0.458 0.388-0.774 0-0.201-0.061-0.387-0.166-0.542l0.002 0.003-1.28-1.728c-0.32-0.416-0.896-0.512-1.312-0.224s-0.512 0.896-0.192 1.312l1.248 1.728zM5.024 11.584l2.048 0.672c0.096 0.032 0.192 0.032 0.288 0.032 0.004 0 0.010 0 0.015 0 0.401 0 0.74-0.268 0.847-0.634l0.002-0.006c0.030-0.087 0.048-0.186 0.048-0.29 0-0.4-0.258-0.739-0.617-0.86l-0.006-0.002-2.048-0.672c-0.512-0.16-1.024 0.096-1.184 0.576-0.16 0.512 0.096 1.024 0.608 1.184zM26.976 16.768l-2.048-0.672c-0.48-0.16-1.024 0.128-1.184 0.608s0.128 1.024 0.608 1.184l2.048 0.64c0.085 0.035 0.183 0.058 0.285 0.064l0.003 0c0.412-0.005 0.761-0.267 0.894-0.633l0.002-0.007c0.16-0.512-0.096-1.024-0.608-1.184zM7.072 16.096l-2.048 0.672c-0.512 0.16-0.768 0.672-0.608 1.184 0.128 0.384 0.48 0.64 0.896 0.64 0.105-0.006 0.203-0.029 0.294-0.066l-0.006 0.002 2.048-0.64c0.48-0.16 0.736-0.704 0.576-1.184s-0.672-0.768-1.152-0.608zM24.64 12.288c0.096 0 0.192 0 0.288-0.032l2.048-0.672c0.48-0.16 0.768-0.672 0.608-1.152-0.122-0.383-0.475-0.655-0.891-0.655-0.105 0-0.206 0.017-0.3 0.049l0.007-0.002-2.048 0.672c-0.48 0.16-0.768 0.672-0.608 1.152 0.16 0.416 0.512 0.64 0.896 0.64zM23.168 4.32c-0.151-0.103-0.338-0.164-0.538-0.164-0.316 0-0.596 0.151-0.772 0.386l-0.002 0.002-1.28 1.728c-0.103 0.151-0.164 0.338-0.164 0.538 0 0.316 0.151 0.596 0.386 0.772l0.002 0.002c0.16 0.128 0.352 0.16 0.544 0.16 0.006 0 0.014 0 0.022 0 0.297 0 0.559-0.151 0.712-0.381l0.002-0.003 1.28-1.728c0.32-0.416 0.224-0.992-0.192-1.312zM19.040 23.776v-2.176c0.64-1.056 1.472-2.304 2.24-3.232 0.896-1.134 1.438-2.583 1.44-4.16v-0.001c0-3.712-3.008-6.688-6.72-6.688s-6.72 2.976-6.72 6.688c0 1.568 0.544 3.008 1.44 4.16 0.8 0.992 1.536 2.080 2.176 3.168v2.24h6.144z" fill="rgba(255,255,255,1)"></path>
    </g>
  </svg>