<svg xmlns="http://www.w3.org/2000/svg" xmlns:xlink="http://www.w3.org/1999/xlink" viewBox="0 0 32 32" width="30" height="30" style="border-color: rgba(187,187,187,1);border-width: 0;border-style: solid" filter="none">
    
    <g>
    <path d="M27.040 7.456c-3.68 0.032-7.36 0.032-11.040 0.032h-11.072c-0.384 0-0.736-0.064-0.64 0.544 0.544 3.456 1.056 6.88 1.6 10.336 0.512 3.424 1.12 6.816 1.536 10.208 0.224 1.792 1.728 3.456 3.776 3.424 3.168-0.064 6.336 0 9.536 0 2.112-0.032 3.488-1.248 3.808-3.36l1.92-12.768c0.384-2.56 0.768-5.152 1.184-7.712 0.096-0.608-0.096-0.704-0.608-0.704zM16.896 12.256c-0.032 5.152 0 10.304 0 15.456h-1.792v-7.712h0.032c0-2.624 0-5.28-0.032-7.904v-0.224h1.76c0.032 0.128 0.032 0.224 0.032 0.384zM7.648 11.872h1.76c0.032 0.128 0.064 0.288 0.096 0.448 0.448 3.648 0.96 7.264 1.472 10.912 0.192 1.472 0.448 2.976 0.608 4.48h-1.76l-1.44-10.368c-0.256-1.792-0.48-3.616-0.736-5.408v-0.064zM23.456 18.272c-0.448 3.136-0.928 6.272-1.312 9.44h-1.76c0.736-5.184 1.408-10.368 2.112-15.52 0.032-0.096 0.032-0.224 0.032-0.32h1.824c-0.032 0.112-0.055 0.243-0.064 0.378l-0 0.006c-0.003-0.421-0.296 1.633-0.575 3.692l-0.258 2.324zM30.144 5.056c-0.352-0.832-0.928-1.504-1.568-2.112-0.672-0.672-1.44-1.056-2.464-1.056-1.952 0.064-3.904 0-5.824 0.032-0.448 0-0.672-0.064-0.8-0.544-0.256-0.96-0.896-1.376-1.888-1.376h-3.264c-0.96 0-1.6 0.448-1.856 1.376-0.128 0.448-0.32 0.576-0.768 0.544-0.866-0.015-1.888-0.024-2.912-0.024s-2.046 0.009-3.066 0.026l0.154-0.002c-1.728 0-3.744 1.696-4.128 3.36-0.128 0.544 0.064 0.832 0.576 0.928 0.256 0.032 0.512 0.032 0.736 0.032h24.608c0.576 0 1.152 0.032 1.728-0.032 0.8-0.032 1.024-0.448 0.736-1.152z" fill="rgba(255,255,255,1)"></path>
    </g>
  </svg>