<svg xmlns="http://www.w3.org/2000/svg" xmlns:xlink="http://www.w3.org/1999/xlink" viewBox="0 0 32 32" width="20" height="20" style="border-color: rgba(187,187,187,1);border-width: 0;border-style: solid" filter="none">
    
    <g>
    <path d="M16.928 14.24v-3.744c0-1.088 0.896-1.984 1.952-1.984h7.328c-2.56-4.352-9.536-5.152-12.64 0.8-3.84-7.424-13.664-4.384-13.568 2.976 0.128 8 9.984 9.376 13.568 14.688 2.912-4.288 9.92-6.016 12.544-10.752h-7.232c-1.056 0-1.952-0.896-1.952-1.984zM31.008 10.176h-11.552c-0.547 0.003-0.989 0.445-0.992 0.992v2.4c0 0.544 0.448 0.992 0.992 0.992h11.552c0.547-0.003 0.989-0.445 0.992-0.992v-2.4c-0.003-0.547-0.445-0.989-0.992-0.992h-0z" fill="rgba(255,255,255,1)"></path>
    </g>
  </svg>