<svg xmlns="http://www.w3.org/2000/svg" xmlns:xlink="http://www.w3.org/1999/xlink" viewBox="0 0 32 32" width="20" height="20" style="border-color: rgba(187,187,187,1);border-width: 0;border-style: solid" filter="none">
    
    <g>
    <path d="M30.56 21.888h-0.064l-3.328-5.632 3.488-5.92 1.184-1.952c-0.114-0.040-0.246-0.064-0.384-0.064h-1.6l-0.032-0.032-0.032 0.032h-7.68v-4.032c0-0.544-0.448-1.024-1.024-1.024h-20.032c-0.576 0-1.056 0.48-1.056 1.024v23.392c0 0.576 0.48 1.056 1.056 1.056h20.032c0.576 0 1.024-0.48 1.024-1.056v-3.296h9.344c0.224 0 0.384-0.096 0.544-0.192l-1.44-2.304zM5.088 26.080c0 0.576-0.48 1.056-1.056 1.056h-0.768c-0.576 0-1.056-0.48-1.056-1.056v-0.992c0-0.576 0.48-1.056 1.056-1.056h0.768c0.576 0 1.056 0.48 1.056 1.056v0.992zM5.344 7.296c0 0.608-0.512 1.12-1.152 1.12h-0.832c-0.64 0-1.152-0.512-1.152-1.12v-1.12c0-0.608 0.512-1.12 1.152-1.12h0.832c0.64 0 1.152 0.512 1.152 1.12v1.12zM10.080 26.080c0 0.576-0.48 1.056-1.024 1.056h-0.8c-0.576 0-1.024-0.48-1.024-1.056v-0.992c0-0.576 0.448-1.056 1.024-1.056h0.8c0.544 0 1.024 0.48 1.024 1.056v0.992zM10.208 7.296c0 0.608-0.512 1.12-1.152 1.12h-0.832c-0.64 0-1.152-0.512-1.152-1.12v-1.12c0-0.608 0.512-1.12 1.152-1.12h0.832c0.64 0 1.152 0.512 1.152 1.12v1.12zM11.936 6.176c0-0.608 0.512-1.12 1.152-1.12h0.832c0.64 0 1.152 0.512 1.152 1.12v1.12c0 0.608-0.512 1.12-1.152 1.12h-0.832c-0.64 0-1.152-0.512-1.152-1.12v-1.12zM15.104 26.080c0 0.576-0.48 1.056-1.056 1.056h-0.768c-0.576 0-1.056-0.48-1.056-1.056v-0.992c0-0.576 0.48-1.056 1.056-1.056h0.768c0.576 0 1.056 0.48 1.056 1.056v0.992zM16.8 7.296v-1.12c0-0.608 0.512-1.12 1.152-1.12h0.832c0.608 0 1.152 0.512 1.152 1.12v1.12c0 0.608-0.544 1.12-1.152 1.12h-0.832c-0.64 0-1.152-0.512-1.152-1.12zM20.096 26.080c0 0.576-0.48 1.056-1.024 1.056h-0.8c-0.576 0-1.024-0.48-1.024-1.056v-0.992c0-0.576 0.448-1.056 1.024-1.056h0.8c0.544 0 1.024 0.48 1.024 1.056v0.992zM22.112 10.752h6.24l-3.2 5.472h-0.064l0.032 0.032-0.032 0.032 0.064 0.032 3.328 5.664h-6.368v-11.232z" fill="rgba(255,255,255,1)"></path>
    </g>
  </svg>